<svg width="111" height="22" viewBox="0 0 111 22" fill="none" xmlns="http://www.w3.org/2000/svg">
<g clip-path="url(#clip0_1_173)">
<path d="M20.6308 8.41249C20.5731 8.24267 20.467 8.09346 20.3255 7.98327C20.184 7.87309 20.0133 7.80674 19.8346 7.79244L14.6054 7.37693L12.3426 2.36791C12.2706 2.20658 12.1533 2.06956 12.0051 1.97337C11.8569 1.87719 11.684 1.82595 11.5073 1.82586C11.3306 1.82576 11.1577 1.8768 11.0094 1.97282C10.861 2.06885 10.7437 2.20574 10.6714 2.367L8.4086 7.37693L3.17945 7.79244C3.00376 7.80635 2.8358 7.87059 2.69566 7.97747C2.55552 8.08435 2.44914 8.22933 2.38925 8.39508C2.32935 8.56084 2.31848 8.74034 2.35793 8.91211C2.39737 9.08388 2.48547 9.24064 2.61168 9.36366L6.47599 13.1307L5.10931 19.0487C5.06782 19.2279 5.08112 19.4153 5.14749 19.5868C5.21386 19.7583 5.33024 19.9059 5.48153 20.0104C5.63282 20.1149 5.81202 20.1715 5.9959 20.1729C6.17977 20.1743 6.35982 20.1205 6.51268 20.0182L11.507 16.6887L16.5014 20.0182C16.6576 20.122 16.8419 20.1754 17.0294 20.1713C17.2168 20.1672 17.3986 20.1057 17.5501 19.9953C17.7017 19.8848 17.8157 19.7305 17.877 19.5533C17.9383 19.376 17.9438 19.1843 17.8928 19.0038L16.2152 13.1335L20.3758 9.38934C20.6482 9.14352 20.7482 8.76012 20.6308 8.41249Z" fill="#F3CD03"/>
<path d="M42.6451 8.41249C42.5874 8.24267 42.4813 8.09346 42.3398 7.98327C42.1983 7.87309 42.0277 7.80674 41.8489 7.79244L36.6198 7.37693L34.357 2.36791C34.2849 2.20658 34.1677 2.06956 34.0195 1.97337C33.8712 1.87719 33.6984 1.82595 33.5217 1.82586C33.345 1.82576 33.172 1.8768 33.0237 1.97282C32.8754 2.06885 32.758 2.20574 32.6858 2.367L30.4229 7.37693L25.1938 7.79244C25.0181 7.80635 24.8501 7.87059 24.71 7.97747C24.5699 8.08435 24.4635 8.22933 24.4036 8.39508C24.3437 8.56084 24.3328 8.74034 24.3723 8.91211C24.4117 9.08388 24.4998 9.24064 24.626 9.36366L28.4903 13.1307L27.1237 19.0487C27.0822 19.2279 27.0955 19.4153 27.1618 19.5868C27.2282 19.7583 27.3446 19.9059 27.4959 20.0104C27.6472 20.1149 27.8264 20.1715 28.0102 20.1729C28.1941 20.1743 28.3742 20.1205 28.527 20.0182L33.5214 16.6887L38.5157 20.0182C38.6719 20.122 38.8562 20.1754 39.0437 20.1713C39.2312 20.1672 39.4129 20.1057 39.5645 19.9953C39.716 19.8848 39.8301 19.7305 39.8913 19.5533C39.9526 19.376 39.9581 19.1843 39.9071 19.0038L38.2295 13.1335L42.3901 9.38934C42.6625 9.14352 42.7625 8.76012 42.6451 8.41249Z" fill="#F3CD03"/>
<path d="M64.6555 8.41249C64.5979 8.24267 64.4918 8.09346 64.3503 7.98327C64.2088 7.87309 64.0381 7.80674 63.8594 7.79244L58.6302 7.37693L56.3674 2.36791C56.2953 2.20658 56.1781 2.06956 56.0299 1.97337C55.8817 1.87719 55.7088 1.82595 55.5321 1.82586C55.3554 1.82576 55.1825 1.8768 55.0341 1.97282C54.8858 2.06885 54.7684 2.20574 54.6962 2.367L52.4334 7.37693L47.2042 7.79244C47.0285 7.80635 46.8606 7.87059 46.7204 7.97747C46.5803 8.08435 46.4739 8.22933 46.414 8.39508C46.3541 8.56084 46.3433 8.74034 46.3827 8.91211C46.4222 9.08388 46.5103 9.24064 46.6365 9.36366L50.5008 13.1307L49.1341 19.0487C49.0926 19.2279 49.1059 19.4153 49.1723 19.5868C49.2386 19.7583 49.355 19.9059 49.5063 20.0104C49.6576 20.1149 49.8368 20.1715 50.0207 20.1729C50.2046 20.1743 50.3846 20.1205 50.5375 20.0182L55.5318 16.6887L60.5261 20.0182C60.6824 20.122 60.8666 20.1754 61.0541 20.1713C61.2416 20.1672 61.4234 20.1057 61.5749 19.9953C61.7264 19.8848 61.8405 19.7305 61.9018 19.5533C61.963 19.376 61.9686 19.1843 61.9176 19.0038L60.24 13.1335L64.4005 9.38934C64.673 9.14352 64.7729 8.76012 64.6555 8.41249Z" fill="#F3CD03"/>
<path d="M86.6719 8.41249C86.6142 8.24267 86.5081 8.09346 86.3666 7.98327C86.2251 7.87309 86.0545 7.80674 85.8757 7.79244L80.6466 7.37693L78.3838 2.36791C78.3117 2.20658 78.1945 2.06956 78.0463 1.97337C77.898 1.87719 77.7252 1.82595 77.5485 1.82586C77.3718 1.82576 77.1988 1.8768 77.0505 1.97282C76.9022 2.06885 76.7848 2.20574 76.7126 2.367L74.4497 7.37693L69.2206 7.79244C69.0449 7.80635 68.8769 7.87059 68.7368 7.97747C68.5967 8.08435 68.4903 8.22933 68.4304 8.39508C68.3705 8.56084 68.3596 8.74034 68.3991 8.91211C68.4385 9.08388 68.5266 9.24064 68.6528 9.36366L72.5171 13.1307L71.1505 19.0487C71.109 19.2279 71.1223 19.4153 71.1886 19.5868C71.255 19.7583 71.3714 19.9059 71.5227 20.0104C71.674 20.1149 71.8532 20.1715 72.037 20.1729C72.2209 20.1743 72.401 20.1205 72.5538 20.0182L77.5482 16.6887L82.5425 20.0182C82.6987 20.122 82.883 20.1754 83.0705 20.1713C83.258 20.1672 83.4397 20.1057 83.5913 19.9953C83.7428 19.8848 83.8569 19.7305 83.9181 19.5533C83.9794 19.376 83.9849 19.1843 83.9339 19.0038L82.2563 13.1335L86.4169 9.38934C86.6893 9.14352 86.7893 8.76012 86.6719 8.41249Z" fill="#F3CD03"/>
<path d="M94.5324 13.1308L93.1657 19.0488C93.1234 19.228 93.1361 19.4158 93.2021 19.5877C93.2682 19.7596 93.3846 19.9075 93.536 20.0122C93.6875 20.1169 93.867 20.1735 94.0511 20.1746C94.2353 20.1757 94.4154 20.1212 94.5681 20.0183L99.5625 16.6888L104.557 20.0183C104.713 20.1221 104.897 20.1755 105.085 20.1714C105.272 20.1673 105.454 20.1058 105.606 19.9953C105.757 19.8849 105.871 19.7306 105.932 19.5534C105.994 19.3761 105.999 19.1844 105.948 19.0039L104.271 13.1336L108.431 9.38943C108.564 9.26945 108.66 9.11304 108.705 8.93954C108.75 8.76604 108.744 8.58307 108.686 8.41326C108.629 8.24344 108.522 8.09423 108.381 7.98407C108.239 7.87391 108.069 7.80764 107.89 7.79344L102.661 7.37702L100.398 2.36801C100.326 2.20671 100.209 2.06975 100.06 1.97365C99.9121 1.87755 99.7392 1.82641 99.5625 1.82641C99.3858 1.82641 99.2129 1.87755 99.0646 1.97365C98.9163 2.06975 98.799 2.20671 98.7269 2.36801L96.4641 7.37702L91.2349 7.79253C91.0592 7.80645 90.8913 7.87069 90.7511 7.97756C90.611 8.08444 90.5046 8.22943 90.4447 8.39518C90.3848 8.56093 90.3739 8.74043 90.4134 8.9122C90.4528 9.08397 90.5409 9.24074 90.6671 9.36375L94.5324 13.1308ZM97.1492 9.16288C97.313 9.14998 97.4702 9.09327 97.6045 8.9987C97.7387 8.90413 97.8451 8.77519 97.9124 8.62538L99.5625 4.97387L101.213 8.62538C101.28 8.77519 101.386 8.90413 101.52 8.9987C101.655 9.09327 101.812 9.14998 101.976 9.16288L105.619 9.4518L102.619 12.1521C102.358 12.387 102.255 12.7483 102.35 13.0859L103.499 17.108L100.072 14.8231C99.922 14.7222 99.745 14.6683 99.5638 14.6683C99.3827 14.6683 99.2057 14.7222 99.0552 14.8231L95.4744 17.2107L96.4375 13.0409C96.4728 12.8876 96.468 12.7277 96.4237 12.5767C96.3794 12.4257 96.2969 12.2887 96.1843 12.1787L93.3977 9.46189L97.1492 9.16288Z" fill="#F3CD03"/>
</g>
<defs>
<clipPath id="clip0_1_173">
<rect width="110.068" height="22" fill="white" transform="translate(0.5)"/>
</clipPath>
</defs>
</svg>
